<?xml version="1.0" encoding="UTF-8"?><!DOCTYPE svg PUBLIC "-//W3C//DTD SVG 1.1//EN" "http://www.w3.org/Graphics/SVG/1.1/DTD/svg11.dtd"><svg xmlns="http://www.w3.org/2000/svg" xmlns:xlink="http://www.w3.org/1999/xlink"><defs>
<symbol id="icon-bookmark" viewBox="0 0 20 20">
<title>bookmark</title>
<path class="path1" d="M14 2v17l-4-4-4 4v-17c0-0.553 0.585-1.020 1-1h6c0.689-0.020 1 0.447 1 1z"/>
</symbol>
<symbol id="icon-chevron-down" viewBox="0 0 20 20">
<title>chevron-down</title>
<path class="path1" d="M4.516 7.548c0.436-0.446 1.043-0.481 1.576 0l3.908 3.747 3.908-3.747c0.533-0.481 1.141-0.446 1.574 0 0.436 0.445 0.408 1.197 0 1.615-0.406 0.418-4.695 4.502-4.695 4.502-0.217 0.223-0.502 0.335-0.787 0.335s-0.57-0.112-0.789-0.335c0 0-4.287-4.084-4.695-4.502s-0.436-1.17 0-1.615z"/>
</symbol>
<symbol id="icon-chevron-left" viewBox="0 0 20 20">
<title>chevron-left</title>
<path class="path1" d="M12.452 4.516c0.446 0.436 0.481 1.043 0 1.576l-3.747 3.908 3.747 3.908c0.481 0.533 0.446 1.141 0 1.574-0.445 0.436-1.197 0.408-1.615 0-0.418-0.406-4.502-4.695-4.502-4.695-0.223-0.217-0.335-0.502-0.335-0.787s0.112-0.57 0.335-0.789c0 0 4.084-4.287 4.502-4.695s1.17-0.436 1.615 0z"/>
</symbol>
<symbol id="icon-chevron-right" viewBox="0 0 20 20">
<title>chevron-right</title>
<path class="path1" d="M9.163 4.516c0.418 0.408 4.502 4.695 4.502 4.695 0.223 0.219 0.335 0.504 0.335 0.789s-0.112 0.57-0.335 0.787c0 0-4.084 4.289-4.502 4.695-0.418 0.408-1.17 0.436-1.615 0-0.446-0.434-0.481-1.041 0-1.574l3.747-3.908-3.747-3.908c-0.481-0.533-0.446-1.141 0-1.576s1.197-0.409 1.615 0z"/>
</symbol>
<symbol id="icon-chevron-thin-down" viewBox="0 0 20 20">
<title>chevron-thin-down</title>
<path class="path1" d="M17.418 6.109c0.272-0.268 0.709-0.268 0.979 0s0.271 0.701 0 0.969l-7.908 7.83c-0.27 0.268-0.707 0.268-0.979 0l-7.908-7.83c-0.27-0.268-0.27-0.701 0-0.969s0.709-0.268 0.979 0l7.419 7.141 7.418-7.141z"/>
</symbol>
<symbol id="icon-chevron-thin-left" viewBox="0 0 20 20">
<title>chevron-thin-left</title>
<path class="path1" d="M13.891 17.418c0.268 0.272 0.268 0.709 0 0.979s-0.701 0.271-0.969 0l-7.83-7.908c-0.268-0.27-0.268-0.707 0-0.979l7.83-7.908c0.268-0.27 0.701-0.27 0.969 0s0.268 0.709 0 0.979l-7.141 7.419 7.141 7.418z"/>
</symbol>
<symbol id="icon-chevron-thin-right" viewBox="0 0 20 20">
<title>chevron-thin-right</title>
<path class="path1" d="M13.25 10l-7.141-7.42c-0.268-0.27-0.268-0.707 0-0.979 0.268-0.27 0.701-0.27 0.969 0l7.83 7.908c0.268 0.271 0.268 0.709 0 0.979l-7.83 7.908c-0.268 0.271-0.701 0.27-0.969 0s-0.268-0.707 0-0.979l7.141-7.417z"/>
</symbol>
<symbol id="icon-chevron-thin-up" viewBox="0 0 20 20">
<title>chevron-thin-up</title>
<path class="path1" d="M2.582 13.891c-0.272 0.268-0.709 0.268-0.979 0s-0.271-0.701 0-0.969l7.908-7.83c0.27-0.268 0.707-0.268 0.979 0l7.908 7.83c0.27 0.268 0.27 0.701 0 0.969s-0.709 0.268-0.978 0l-7.42-7.141-7.418 7.141z"/>
</symbol>
<symbol id="icon-chevron-up" viewBox="0 0 20 20">
<title>chevron-up</title>
<path class="path1" d="M15.484 12.452c-0.436 0.446-1.043 0.481-1.576 0l-3.908-3.747-3.908 3.747c-0.533 0.481-1.141 0.446-1.574 0-0.436-0.445-0.408-1.197 0-1.615 0.406-0.418 4.695-4.502 4.695-4.502 0.217-0.223 0.502-0.335 0.787-0.335s0.57 0.112 0.789 0.335c0 0 4.287 4.084 4.695 4.502s0.436 1.17 0 1.615z"/>
</symbol>
<symbol id="icon-cloud" viewBox="0 0 20 20">
<title>cloud</title>
<path class="path1" d="M20 11.32c0 2.584-2.144 4.68-4.787 4.68h-11.596c-1.998 0-3.617-1.584-3.617-3.537 0-1.951 1.619-3.535 3.617-3.535 0.146 0 0.288 0.012 0.429 0.027-0.037-0.246-0.057-0.498-0.057-0.756 0-2.871 2.381-5.199 5.32-5.199 2.407 0 4.439 1.562 5.096 3.707 0.263-0.043 0.532-0.066 0.809-0.066 2.642 0 4.786 2.093 4.786 4.679z"/>
</symbol>
<symbol id="icon-aircraft-take-off" viewBox="0 0 20 20">
<title>aircraft-take-off</title>
<path class="path1" d="M19.87 6.453c0.119 0.257 0.127 1.29-4.884 3.642l-4.913 2.306c-1.71 0.803-4.191 1.859-5.285 2.151-0.766 0.204-1.497-0.316-1.497-0.316s-2.206-1.975-2.792-2.419c-0.585-0.444-0.535-0.67 0.215-0.91 0.467-0.149 3.13 0.493 4.265 0.78 1.339-0.8 2.562-1.486 3.141-1.798-1.396-1.033-4.008-2.962-4.841-3.55-0.799-0.565 0.010-0.768 0.010-0.768 0.368-0.099 1.162-0.228 1.562-0.144 2.721 0.569 7.263 2.071 7.611 2.186 0.832-0.436 2.128-1.092 2.922-1.465 2.075-0.974 4.327-0.037 4.486 0.305z"/>
</symbol>
<symbol id="icon-bell" viewBox="0 0 20 20">
<title>bell</title>
<path class="path1" d="M14.65 8.512c-2.28-4.907-3.466-6.771-7.191-6.693-1.327 0.027-1.009-0.962-2.021-0.587-1.010 0.375-0.143 0.924-1.177 1.773-2.902 2.383-2.635 4.587-1.289 9.84 0.567 2.213-1.367 2.321-0.602 4.465 0.559 1.564 4.679 2.219 9.025 0.607s7.086-4.814 6.527-6.378c-0.765-2.145-2.311-0.961-3.272-3.027zM10.924 16.595c-3.882 1.44-7.072 0.594-7.207 0.217-0.232-0.65 1.253-2.816 5.691-4.463s6.915-1.036 7.174-0.311c0.153 0.429-1.775 3.116-5.658 4.557zM9.676 13.101c-2.029 0.753-3.439 1.614-4.353 2.389 0.643 0.584 1.847 0.726 3.046 0.281 1.527-0.565 2.466-1.866 2.095-2.904-0.005-0.013-0.011-0.023-0.016-0.036-0.251 0.082-0.508 0.171-0.772 0.27z"/>
</symbol>
<symbol id="icon-calendar" viewBox="0 0 20 20">
<title>calendar</title>
<path class="path1" d="M17 3h-1v2h-3v-2h-6v2h-3v-2h-1c-1.101 0-2 0.9-2 2v12c0 1.1 0.899 2 2 2h14c1.1 0 2-0.9 2-2v-12c0-1.1-0.9-2-2-2zM17 17h-14v-8h14v8zM6.5 1h-2v3.5h2v-3.5zM15.5 1h-2v3.5h2v-3.5z"/>
</symbol>
<symbol id="icon-camera" viewBox="0 0 20 20">
<title>camera</title>
<path class="path1" d="M10 8c-1.657 0-3 1.344-3 3s1.343 3 3 3c1.656 0 3-1.344 3-3s-1.344-3-3-3zM18 5h-2.4c-0.33 0-0.686-0.256-0.789-0.57l-0.621-1.861c-0.105-0.313-0.459-0.569-0.79-0.569h-6.8c-0.33 0-0.686 0.256-0.789 0.568l-0.622 1.862c-0.104 0.314-0.459 0.57-0.789 0.57h-2.4c-1.1 0-2 0.9-2 2v9c0 1.1 0.9 2 2 2h16c1.1 0 2-0.9 2-2v-9c0-1.1-0.9-2-2-2zM10 16c-2.762 0-5-2.238-5-5s2.238-5 5-5c2.761 0 5 2.238 5 5s-2.239 5-5 5zM17.5 8.2c-0.387 0-0.7-0.314-0.7-0.701 0-0.385 0.313-0.7 0.7-0.7s0.7 0.314 0.7 0.7c0 0.387-0.313 0.701-0.7 0.701z"/>
</symbol>
<symbol id="icon-chat" viewBox="0 0 20 20">
<title>chat</title>
<path class="path1" d="M5.8 12.2v-6.2h-3.8c-1.1 0-2 0.9-2 2v6c0 1.1 0.9 2 2 2h1v3l3-3h5c1.1 0 2-0.9 2-2v-1.82c-0.064 0.014-0.132 0.021-0.2 0.021l-7-0.001zM18 1h-9c-1.1 0-2 0.9-2 2v8h7l3 3v-3h1c1.1 0 2-0.899 2-2v-6c0-1.1-0.9-2-2-2z"/>
</symbol>
<symbol id="icon-cog" viewBox="0 0 20 20">
<title>cog</title>
<path class="path1" d="M16.783 10c0-1.049 0.646-1.875 1.617-2.443-0.176-0.584-0.407-1.145-0.692-1.672-1.089 0.285-1.97-0.141-2.711-0.883-0.741-0.74-0.968-1.621-0.683-2.711-0.527-0.285-1.088-0.518-1.672-0.691-0.568 0.97-1.595 1.615-2.642 1.615-1.048 0-2.074-0.645-2.643-1.615-0.585 0.173-1.144 0.406-1.671 0.691 0.285 1.090 0.059 1.971-0.684 2.711-0.74 0.742-1.621 1.168-2.711 0.883-0.285 0.527-0.517 1.088-0.691 1.672 0.97 0.568 1.615 1.394 1.615 2.443 0 1.047-0.645 2.074-1.615 2.643 0.175 0.584 0.406 1.144 0.691 1.672 1.090-0.285 1.971-0.059 2.711 0.682s0.969 1.623 0.684 2.711c0.527 0.285 1.087 0.518 1.672 0.693 0.568-0.973 1.595-1.617 2.643-1.617 1.047 0 2.074 0.645 2.643 1.617 0.584-0.176 1.144-0.408 1.672-0.693-0.285-1.088-0.059-1.969 0.683-2.711 0.741-0.74 1.622-1.166 2.711-0.883 0.285-0.527 0.517-1.086 0.692-1.672-0.973-0.569-1.619-1.395-1.619-2.442zM10 13.652c-2.018 0-3.653-1.635-3.653-3.652 0-2.018 1.636-3.654 3.653-3.654s3.652 1.637 3.652 3.654c0 2.018-1.634 3.652-3.652 3.652z"/>
</symbol>
<symbol id="icon-home" viewBox="0 0 20 20">
<title>home</title>
<path class="path1" d="M18.672 11h-1.672v6c0 0.445-0.194 1-1 1h-4v-6h-4v6h-4c-0.806 0-1-0.555-1-1v-6h-1.672c-0.598 0-0.47-0.324-0.060-0.748l8.024-8.032c0.195-0.202 0.451-0.302 0.708-0.312 0.257 0.010 0.513 0.109 0.708 0.312l8.023 8.031c0.411 0.425 0.539 0.749-0.059 0.749z"/>
</symbol>
<symbol id="icon-key" viewBox="0 0 20 20">
<title>key</title>
<path class="path1" d="M17.691 4.725c-0.503-2.977-3.22-4.967-6.069-4.441s-5.256 2.816-4.753 5.795c0.107 0.641 0.408 1.644 0.763 2.365l-5.175 7.723c-0.191 0.285-0.299 0.799-0.242 1.141l0.333 1.971c0.058 0.342 0.372 0.572 0.7 0.514l1.516-0.281c0.328-0.059 0.744-0.348 0.924-0.639l2.047-3.311 0.018-0.022 1.386-0.256 2.39-3.879c0.785 0.139 1.912 0.092 2.578-0.031 2.848-0.526 4.087-3.67 3.584-6.649zM15.166 6.252c-0.784 1.17-1.584 0.346-2.703-0.475-1.119-0.818-2.135-1.322-1.352-2.492s2.326-1.455 3.447-0.635c1.12 0.819 1.391 2.432 0.608 3.602z"/>
</symbol>
<symbol id="icon-light-up" viewBox="0 0 20 20">
<title>light-up</title>
<path class="path1" d="M19 9.199c-0.182 0-0.799 0-0.98 0-0.553 0-1 0.359-1 0.801s0.447 0.799 1 0.799c0.182 0 0.799 0 0.98 0 0.552 0 1-0.357 1-0.799 0-0.441-0.449-0.801-1-0.801zM10 4.5c-3.051 0-5.5 2.449-5.5 5.5s2.449 5.5 5.5 5.5c3.050 0 5.5-2.449 5.5-5.5s-2.451-5.5-5.5-5.5zM10 14c-2.211 0-4-1.791-4-4 0-2.211 1.789-4 4-4 2.209 0 4 1.789 4 4 0 2.209-1.791 4-4 4zM3 10c0-0.441-0.449-0.801-1-0.801-0.185 0-0.816 0-1 0-0.553 0-1 0.359-1 0.801s0.447 0.799 1 0.799c0.184 0 0.815 0 1 0 0.551 0 1-0.358 1-0.799zM10 3c0.441 0 0.799-0.447 0.799-1 0-0.184 0-0.816 0-1 0-0.553-0.358-1-0.799-1s-0.801 0.447-0.801 1c0 0.184 0 0.816 0 1 0 0.553 0.359 1 0.801 1zM10 17c-0.442 0-0.801 0.447-0.801 1 0 0.184 0 0.816 0 1 0 0.553 0.359 1 0.801 1s0.799-0.447 0.799-1c0-0.184 0-0.816 0-1 0-0.553-0.358-1-0.799-1zM17.365 3.766c0.391-0.391 0.454-0.961 0.142-1.273s-0.883-0.248-1.272 0.143c-0.108 0.107-0.593 0.592-0.7 0.699-0.391 0.391-0.454 0.961-0.142 1.273s0.883 0.248 1.273-0.143c0.107-0.108 0.591-0.592 0.699-0.699zM3.334 15.533c-0.108 0.109-0.593 0.594-0.7 0.701-0.391 0.391-0.454 0.959-0.142 1.271s0.883 0.25 1.272-0.141c0.108-0.107 0.593-0.592 0.7-0.699 0.391-0.391 0.454-0.961 0.142-1.274s-0.883-0.247-1.272 0.142zM3.765 2.635c-0.39-0.391-0.961-0.455-1.273-0.143s-0.248 0.883 0.141 1.274c0.108 0.107 0.593 0.592 0.7 0.699 0.391 0.391 0.96 0.455 1.272 0.143s0.249-0.883-0.141-1.273c-0.107-0.108-0.591-0.593-0.699-0.7zM15.534 16.666c0.108 0.107 0.593 0.592 0.7 0.699 0.391 0.391 0.96 0.453 1.272 0.143 0.312-0.312 0.249-0.883-0.142-1.273-0.107-0.107-0.592-0.592-0.699-0.699-0.391-0.391-0.961-0.455-1.274-0.143s-0.248 0.882 0.143 1.273z"/>
</symbol>
<symbol id="icon-location-pin" viewBox="0 0 20 20">
<title>location-pin</title>
<path class="path1" d="M10 2.009c-2.762 0-5 2.229-5 4.99 0 4.774 5 11 5 11s5-6.227 5-11c0-2.76-2.238-4.99-5-4.99zM10 9.76c-1.492 0-2.7-1.209-2.7-2.7s1.208-2.7 2.7-2.7c1.49 0 2.699 1.209 2.699 2.7s-1.209 2.7-2.699 2.7z"/>
</symbol>
<symbol id="icon-magnifying-glass" viewBox="0 0 20 20">
<title>magnifying-glass</title>
<path class="path1" d="M17.545 15.467l-3.779-3.779c0.57-0.935 0.898-2.035 0.898-3.21 0-3.417-2.961-6.377-6.378-6.377s-6.186 2.769-6.186 6.186c0 3.416 2.961 6.377 6.377 6.377 1.137 0 2.2-0.309 3.115-0.844l3.799 3.801c0.372 0.371 0.975 0.371 1.346 0l0.943-0.943c0.371-0.371 0.236-0.84-0.135-1.211zM4.004 8.287c0-2.366 1.917-4.283 4.282-4.283s4.474 2.107 4.474 4.474c0 2.365-1.918 4.283-4.283 4.283s-4.473-2.109-4.473-4.474z"/>
</symbol>
<symbol id="icon-mail" viewBox="0 0 20 20">
<title>mail</title>
<path class="path1" d="M1.574 5.286c0.488 0.262 7.248 3.894 7.5 4.029s0.578 0.199 0.906 0.199c0.328 0 0.654-0.064 0.906-0.199s7.012-3.767 7.5-4.029c0.489-0.263 0.951-1.286 0.054-1.286h-16.919c-0.897 0-0.435 1.023 0.053 1.286zM18.613 7.489c-0.555 0.289-7.387 3.849-7.727 4.027s-0.578 0.199-0.906 0.199-0.566-0.021-0.906-0.199-7.133-3.739-7.688-4.028c-0.39-0.204-0.386 0.035-0.386 0.219s0 7.293 0 7.293c0 0.42 0.566 1 1 1h16c0.434 0 1-0.58 1-1 0 0 0-7.108 0-7.292s0.004-0.423-0.387-0.219z"/>
</symbol>
<symbol id="icon-map" viewBox="0 0 20 20">
<title>map</title>
<path class="path1" d="M19.447 3.718l-6-3c-0.281-0.141-0.613-0.141-0.895 0l-5.63 2.815-5.606-1.869c-0.306-0.102-0.64-0.051-0.901 0.138s-0.415 0.49-0.415 0.811v13.001c0 0.379 0.214 0.725 0.553 0.894l6 3c0.141 0.070 0.294 0.106 0.447 0.106s0.307-0.035 0.447-0.106l5.63-2.814 5.606 1.869c0.305 0.1 0.64 0.049 0.901-0.139s0.415-0.49 0.415-0.81v-13.002c0.001-0.379-0.213-0.725-0.552-0.894zM8 5.231l4-2v11.763l-4 2v-11.763zM2 4l4 1.333v11.661l-4-2v-10.994zM18 16.227l-4-1.334v-11.662l4 2v10.996z"/>
</symbol>
<symbol id="icon-squared-cross" viewBox="0 0 20 20">
<title>squared-cross</title>
<path class="path1" d="M16 2h-12c-1.1 0-2 0.9-2 2v12c0 1.1 0.9 2 2 2h12c1.1 0 2-0.9 2-2v-12c0-1.1-0.9-2-2-2zM13.061 14.789l-3.061-3.060-3.061 3.060-1.729-1.728 3.061-3.061-3.060-3.061 1.729-1.729 3.060 3.061 3.059-3.061 1.729 1.729-3.059 3.061 3.060 3.061-1.728 1.728z"/>
</symbol>
<symbol id="icon-star-outlined" viewBox="0 0 20 20">
<title>star-outlined</title>
<path class="path1" d="M18.8 8.022h-6.413l-2.387-6.722-2.389 6.722h-6.412l5.232 3.947-1.871 6.929 5.44-4.154 5.438 4.154-1.869-6.929 5.231-3.947zM10 12.783l-3.014 2.5 1.243-3.562-2.851-2.3 3.522 0.101 1.1-4.040 1.099 4.040 3.521-0.101-2.851 2.3 1.243 3.562-3.012-2.5z"/>
</symbol>
<symbol id="icon-star" viewBox="0 0 20 20">
<title>star</title>
<path class="path1" d="M10 1.3l2.388 6.722h6.412l-5.232 3.948 1.871 6.928-5.439-4.154-5.438 4.154 1.87-6.928-5.233-3.948h6.412l2.389-6.722z"/>
</symbol>
<symbol id="icon-user" viewBox="0 0 20 20">
<title>user</title>
<path class="path1" d="M7.725 2.146c-1.016 0.756-1.289 1.953-1.239 2.59 0.064 0.779 0.222 1.793 0.222 1.793s-0.313 0.17-0.313 0.854c0.109 1.717 0.683 0.976 0.801 1.729 0.284 1.814 0.933 1.491 0.933 2.481 0 1.649-0.68 2.42-2.803 3.334-2.13 0.918-4.326 2.073-4.326 4.073v1h18v-1c0-2-2.197-3.155-4.328-4.072-2.123-0.914-2.801-1.684-2.801-3.334 0-0.99 0.647-0.667 0.932-2.481 0.119-0.753 0.692-0.012 0.803-1.729 0-0.684-0.314-0.854-0.314-0.854s0.158-1.014 0.221-1.793c0.065-0.817-0.398-2.561-2.3-3.096-0.333-0.34-0.558-0.881 0.466-1.424-2.24-0.105-2.761 1.067-3.954 1.929z"/>
</symbol>
<symbol id="icon-facebook" viewBox="0 0 20 20">
<title>facebook</title>
<path class="path1" d="M17 1h-14c-1.1 0-2 0.9-2 2v14c0 1.101 0.9 2 2 2h7v-7h-2v-2.475h2v-2.050c0-2.164 1.212-3.684 3.766-3.684l1.803 0.002v2.605h-1.197c-0.994 0-1.372 0.746-1.372 1.438v1.69h2.568l-0.568 2.474h-2v7h4c1.1 0 2-0.899 2-2v-14c0-1.1-0.9-2-2-2z"/>
</symbol>
<symbol id="icon-instagram" viewBox="0 0 20 20">
<title>instagram</title>
<path class="path1" d="M17 1h-14c-1.1 0-2 0.9-2 2v14c0 1.101 0.9 2 2 2h14c1.1 0 2-0.899 2-2v-14c0-1.1-0.9-2-2-2zM9.984 15.523c3.059 0 5.538-2.481 5.538-5.539 0-0.338-0.043-0.664-0.103-0.984h1.581v7.216c0 0.382-0.31 0.69-0.693 0.69h-12.614c-0.383 0-0.693-0.308-0.693-0.69v-7.216h1.549c-0.061 0.32-0.104 0.646-0.104 0.984 0 3.059 2.481 5.539 5.539 5.539zM6.523 9.984c0-1.912 1.55-3.461 3.462-3.461s3.462 1.549 3.462 3.461-1.551 3.462-3.462 3.462c-1.913 0-3.462-1.55-3.462-3.462zM16.307 6h-1.615c-0.382 0-0.692-0.312-0.692-0.692v-1.617c0-0.382 0.31-0.691 0.691-0.691h1.615c0.384 0 0.694 0.309 0.694 0.691v1.616c0 0.381-0.31 0.693-0.693 0.693z"/>
</symbol>
</defs><symbol id="bookmark" viewBox="0 0 459 459">
<g>
	<g id="bookmark">
		<path d="M357,0H102C73.95,0,51,22.95,51,51v408l178.5-76.5L408,459V51C408,22.95,385.05,0,357,0z"/>
	</g>
</g>
<g>
</g>
<g>
</g>
<g>
</g>
<g>
</g>
<g>
</g>
<g>
</g>
<g>
</g>
<g>
</g>
<g>
</g>
<g>
</g>
<g>
</g>
<g>
</g>
<g>
</g>
<g>
</g>
<g>
</g>
</symbol><symbol id="chevron-thin-right" viewBox="0 0 20 20">
<path d="M13.25 10l-7.141-7.42c-0.268-0.27-0.268-0.707 0-0.979 0.268-0.27 0.701-0.27 0.969 0l7.83 7.908c0.268 0.271 0.268 0.709 0 0.979l-7.83 7.908c-0.268 0.271-0.701 0.27-0.969 0s-0.268-0.707 0-0.979l7.141-7.417z"/>
</symbol><symbol id="home" viewBox="0 0 460.298 460.297">
<g>
	<g>
		<path d="M230.149,120.939L65.986,256.274c0,0.191-0.048,0.472-0.144,0.855c-0.094,0.38-0.144,0.656-0.144,0.852v137.041
			c0,4.948,1.809,9.236,5.426,12.847c3.616,3.613,7.898,5.431,12.847,5.431h109.63V303.664h73.097v109.64h109.629
			c4.948,0,9.236-1.814,12.847-5.435c3.617-3.607,5.432-7.898,5.432-12.847V257.981c0-0.76-0.104-1.334-0.288-1.707L230.149,120.939
			z"/>
		<path d="M457.122,225.438L394.6,173.476V56.989c0-2.663-0.856-4.853-2.574-6.567c-1.704-1.712-3.894-2.568-6.563-2.568h-54.816
			c-2.666,0-4.855,0.856-6.57,2.568c-1.711,1.714-2.566,3.905-2.566,6.567v55.673l-69.662-58.245
			c-6.084-4.949-13.318-7.423-21.694-7.423c-8.375,0-15.608,2.474-21.698,7.423L3.172,225.438c-1.903,1.52-2.946,3.566-3.14,6.136
			c-0.193,2.568,0.472,4.811,1.997,6.713l17.701,21.128c1.525,1.712,3.521,2.759,5.996,3.142c2.285,0.192,4.57-0.476,6.855-1.998
			L230.149,95.817l197.57,164.741c1.526,1.328,3.521,1.991,5.996,1.991h0.858c2.471-0.376,4.463-1.43,5.996-3.138l17.703-21.125
			c1.522-1.906,2.189-4.145,1.991-6.716C460.068,229.007,459.021,226.961,457.122,225.438z"/>
	</g>
</g>
<g>
</g>
<g>
</g>
<g>
</g>
<g>
</g>
<g>
</g>
<g>
</g>
<g>
</g>
<g>
</g>
<g>
</g>
<g>
</g>
<g>
</g>
<g>
</g>
<g>
</g>
<g>
</g>
<g>
</g>
</symbol><symbol id="key" viewBox="0 0 300 300">
<path d="M287.305,243.005c-0.136-1.772-0.928-3.476-2.227-4.747L172.835,126.015c4.416-10.403,6.747-21.669,6.747-33.312
	c0-22.754-8.875-44.163-24.938-60.266C138.558,16.366,117.164,7.5,94.397,7.5c-22.778,0-44.135,8.869-60.247,24.95
	C0.907,65.675,0.9,119.716,34.145,152.938c16.111,16.115,37.475,24.99,60.241,24.99c11.646,0,22.884-2.35,33.312-6.772
	l36.874,36.902c1.534,1.515,3.557,2.319,5.74,2.248l20.095-0.705l-0.656,20.145c-0.062,2.125,0.705,4.193,2.245,5.706
	c1.484,1.512,3.569,2.334,5.685,2.248l20.169-0.689l-0.724,20.123c-0.063,2.127,0.754,4.199,2.238,5.712
	c1.534,1.512,3.321,2.325,5.74,2.251l20.119-0.684l-0.674,20.126c-0.118,2.232,0.822,4.379,2.418,5.903
	c1.472,1.339,3.309,2.06,5.245,2.06c0.278,0,0.563-0.012,0.847-0.037l30.851-3.426c4.169-0.455,7.205-4.175,6.847-8.353
	L287.305,243.005z M84.106,82.415c-9.476,9.466-24.796,9.466-34.252,0c-9.47-9.469-9.47-24.786,0-34.246
	c9.456-9.46,24.771-9.469,34.252-0.003C93.563,57.625,93.557,72.952,84.106,82.415z M260.97,245.575
	c-1.126,1.126-2.635,1.688-4.101,1.688s-2.976-0.563-4.101-1.688l-95.501-95.529c2.659-2.867,5.077-5.885,7.273-9.058l96.429,96.41
	C263.221,239.65,263.221,243.324,260.97,245.575z"/>
</symbol><symbol id="magnifier" viewBox="0 0 485.213 485.213">
<g>
	<g>
		<path d="M471.882,407.567L360.567,296.243c-16.586,25.795-38.536,47.734-64.331,64.321l111.324,111.324
			c17.772,17.768,46.587,17.768,64.321,0C489.654,454.149,489.654,425.334,471.882,407.567z"/>
		<path d="M363.909,181.955C363.909,81.473,282.44,0,181.956,0C81.474,0,0.001,81.473,0.001,181.955s81.473,181.951,181.955,181.951
			C282.44,363.906,363.909,282.437,363.909,181.955z M181.956,318.416c-75.252,0-136.465-61.208-136.465-136.46
			c0-75.252,61.213-136.465,136.465-136.465c75.25,0,136.468,61.213,136.468,136.465
			C318.424,257.208,257.206,318.416,181.956,318.416z"/>
		<path d="M75.817,181.955h30.322c0-41.803,34.014-75.814,75.816-75.814V75.816C123.438,75.816,75.817,123.437,75.817,181.955z"/>
	</g>
</g>
<g>
</g>
<g>
</g>
<g>
</g>
<g>
</g>
<g>
</g>
<g>
</g>
<g>
</g>
<g>
</g>
<g>
</g>
<g>
</g>
<g>
</g>
<g>
</g>
<g>
</g>
<g>
</g>
<g>
</g>
</symbol><symbol id="map" viewBox="0 0 54 54">
<g>
	<path d="M53.516,1.143c-0.3-0.182-0.674-0.19-0.983-0.027L36,9.869L19.468,1.116c-0.013-0.007-0.028-0.009-0.041-0.015
		c-0.048-0.023-0.097-0.04-0.147-0.055c-0.028-0.008-0.055-0.017-0.083-0.023c-0.055-0.011-0.111-0.015-0.168-0.017
		c-0.025-0.001-0.05-0.004-0.076-0.003c-0.054,0.003-0.107,0.013-0.16,0.025c-0.03,0.006-0.06,0.01-0.089,0.019
		c-0.007,0.002-0.014,0.002-0.02,0.004l-18,6C0.275,7.187,0,7.569,0,8v43c0,0.321,0.154,0.623,0.416,0.812
		C0.588,51.935,0.793,52,1,52c0.106,0,0.213-0.017,0.316-0.052l17.646-5.882l16.657,6.859c0.014,0.006,0.03,0.004,0.044,0.009
		C35.773,52.973,35.885,53,36,53c0.09,0,0.179-0.015,0.266-0.039c0.028-0.008,0.054-0.021,0.082-0.031
		c0.04-0.015,0.082-0.026,0.12-0.046l17-9C53.795,43.711,54,43.37,54,43V2C54,1.649,53.816,1.324,53.516,1.143z M2,8.721l16-5.333
		v26.992c-0.43,0.078-0.854,0.166-1.264,0.274c-0.534,0.142-0.852,0.689-0.71,1.223c0.119,0.448,0.523,0.744,0.966,0.744
		c0.084,0,0.171-0.011,0.257-0.033c0.24-0.064,0.502-0.096,0.751-0.148v11.84L2,49.612V8.721z M20,32.16
		c0.321-0.025,0.632-0.066,0.961-0.073c0.552-0.012,0.99-0.469,0.979-1.021c-0.012-0.545-0.457-0.979-1-0.979
		c-0.007,0-0.015,0-0.022,0c-0.31,0.007-0.615,0.024-0.918,0.045V3.661l15,7.941v21.194c-0.714-0.031-1.44-0.115-2.201-0.262
		c-0.544-0.107-1.067,0.249-1.172,0.791s0.25,1.067,0.792,1.172c0.886,0.172,1.746,0.256,2.582,0.289v15.721L20,44.33V32.16z
		 M52,42.397l-15,7.941v-15.66c0.372-0.169,0.62-0.549,0.587-0.98c-0.029-0.374-0.269-0.674-0.587-0.821V11.602l15-7.941V42.397z"/>
	<path d="M11,9c-2.757,0-5,2.243-5,5c0,2.415,1.721,4.434,4,4.899V21c0,0.553,0.448,1,1,1s1-0.447,1-1v-2.101
		c2.279-0.465,4-2.484,4-4.899C16,11.243,13.757,9,11,9z M11,17c-1.654,0-3-1.346-3-3s1.346-3,3-3s3,1.346,3,3S12.654,17,11,17z"/>
	<path d="M45.07,27.673c0.12,0.047,0.243,0.068,0.364,0.068c0.4,0,0.777-0.241,0.932-0.636c0.47-1.199,0.847-2.553,1.123-4.024
		c0.102-0.542-0.256-1.064-0.799-1.167c-0.546-0.09-1.065,0.257-1.167,0.8c-0.252,1.348-0.595,2.58-1.019,3.663
		C44.303,26.89,44.556,27.471,45.07,27.673z"/>
	<path d="M12.805,32.342c-1.207,0.757-2.295,1.705-3.235,2.82c-0.356,0.422-0.302,1.053,0.12,1.409
		c0.188,0.158,0.417,0.235,0.644,0.235c0.285,0,0.567-0.121,0.765-0.355c0.806-0.956,1.737-1.769,2.768-2.414
		c0.468-0.294,0.609-0.911,0.316-1.379C13.89,32.19,13.272,32.048,12.805,32.342z"/>
	<path d="M8.627,38.276c-0.502-0.23-1.096-0.013-1.327,0.489c-1.026,2.226-1.28,4.023-1.291,4.099
		c-0.075,0.547,0.307,1.05,0.854,1.125c0.046,0.007,0.093,0.01,0.138,0.01c0.491,0,0.919-0.362,0.99-0.861
		c0.002-0.016,0.231-1.597,1.125-3.534C9.347,39.101,9.128,38.508,8.627,38.276z"/>
	<path d="M40.423,33.729c0.153,0,0.309-0.035,0.454-0.109c1.292-0.661,2.431-1.599,3.384-2.786c0.346-0.431,0.277-1.061-0.154-1.406
		c-0.43-0.343-1.06-0.276-1.406,0.154c-0.776,0.967-1.696,1.726-2.735,2.257c-0.492,0.252-0.687,0.854-0.435,1.346
		C39.709,33.53,40.06,33.729,40.423,33.729z"/>
	<path d="M29.17,31.432c-0.441-0.185-0.699-0.313-0.716-0.322c-0.065-0.033-0.134-0.06-0.205-0.078
		c-1.083-0.278-2.15-0.498-3.173-0.654c-0.545-0.086-1.056,0.291-1.14,0.837c-0.083,0.546,0.292,1.057,0.838,1.14
		c0.926,0.142,1.893,0.34,2.877,0.59c0.134,0.064,0.39,0.185,0.748,0.334c0.126,0.053,0.257,0.077,0.385,0.077
		c0.391,0,0.763-0.23,0.923-0.614C29.92,32.23,29.68,31.644,29.17,31.432z"/>
	<path d="M46.923,19.931c0.022,0.001,0.043,0.002,0.065,0.002c0.523,0,0.963-0.406,0.997-0.937c0.062-0.961,0.093-1.978,0.093-3.02
		c0-0.347-0.003-0.699-0.01-1.058c-0.01-0.553-0.49-0.973-1.018-0.982c-0.552,0.01-0.992,0.466-0.982,1.018
		c0.006,0.347,0.01,0.688,0.01,1.022c0,1-0.03,1.973-0.089,2.893C45.954,19.42,46.372,19.895,46.923,19.931z"/>
	<path d="M8.293,28.707C8.488,28.902,8.744,29,9,29s0.512-0.098,0.707-0.293L11,27.414l1.293,1.293C12.488,28.902,12.744,29,13,29
		s0.512-0.098,0.707-0.293c0.391-0.391,0.391-1.023,0-1.414L12.414,26l1.293-1.293c0.391-0.391,0.391-1.023,0-1.414
		s-1.023-0.391-1.414,0L11,24.586l-1.293-1.293c-0.391-0.391-1.023-0.391-1.414,0s-0.391,1.023,0,1.414L9.586,26l-1.293,1.293
		C7.902,27.683,7.902,28.316,8.293,28.707z"/>
</g>
<g>
</g>
<g>
</g>
<g>
</g>
<g>
</g>
<g>
</g>
<g>
</g>
<g>
</g>
<g>
</g>
<g>
</g>
<g>
</g>
<g>
</g>
<g>
</g>
<g>
</g>
<g>
</g>
<g>
</g>
</symbol><symbol id="maps-and-flags" viewBox="0 0 512 512">
<g>
	<g>
		<path d="M256,0C153.755,0,70.573,83.182,70.573,185.426c0,126.888,165.939,313.167,173.004,321.035
			c6.636,7.391,18.222,7.378,24.846,0c7.065-7.868,173.004-194.147,173.004-321.035C441.425,83.182,358.244,0,256,0z M256,278.719
			c-51.442,0-93.292-41.851-93.292-93.293S204.559,92.134,256,92.134s93.291,41.851,93.291,93.293S307.441,278.719,256,278.719z"/>
	</g>
</g>
<g>
</g>
<g>
</g>
<g>
</g>
<g>
</g>
<g>
</g>
<g>
</g>
<g>
</g>
<g>
</g>
<g>
</g>
<g>
</g>
<g>
</g>
<g>
</g>
<g>
</g>
<g>
</g>
<g>
</g>
</symbol><symbol id="right-arrow" viewBox="0 0 129 129">
  <g>
    <path d="m40.4,121.3c-0.8,0.8-1.8,1.2-2.9,1.2s-2.1-0.4-2.9-1.2c-1.6-1.6-1.6-4.2 0-5.8l51-51-51-51c-1.6-1.6-1.6-4.2 0-5.8 1.6-1.6 4.2-1.6 5.8,0l53.9,53.9c1.6,1.6 1.6,4.2 0,5.8l-53.9,53.9z"/>
  </g>
</symbol><symbol id="sprite">

</symbol><symbol id="star" viewBox="0 0 487.222 487.222">
<g>
	<path d="M486.554,186.811c-1.6-4.9-5.8-8.4-10.9-9.2l-152-21.6l-68.4-137.5c-2.3-4.6-7-7.5-12.1-7.5l0,0c-5.1,0-9.8,2.9-12.1,7.6
		l-67.5,137.9l-152,22.6c-5.1,0.8-9.3,4.3-10.9,9.2s-0.2,10.3,3.5,13.8l110.3,106.9l-25.5,151.4c-0.9,5.1,1.2,10.2,5.4,13.2
		c2.3,1.7,5.1,2.6,7.9,2.6c2.2,0,4.3-0.5,6.3-1.6l135.7-71.9l136.1,71.1c2,1,4.1,1.5,6.2,1.5l0,0c7.4,0,13.5-6.1,13.5-13.5
		c0-1.1-0.1-2.1-0.4-3.1l-26.3-150.5l109.6-107.5C486.854,197.111,488.154,191.711,486.554,186.811z M349.554,293.911
		c-3.2,3.1-4.6,7.6-3.8,12l22.9,131.3l-118.2-61.7c-3.9-2.1-8.6-2-12.6,0l-117.8,62.4l22.1-131.5c0.7-4.4-0.7-8.8-3.9-11.9
		l-95.6-92.8l131.9-19.6c4.4-0.7,8.2-3.4,10.1-7.4l58.6-119.7l59.4,119.4c2,4,5.8,6.7,10.2,7.4l132,18.8L349.554,293.911z"/>
</g>
<g>
</g>
<g>
</g>
<g>
</g>
<g>
</g>
<g>
</g>
<g>
</g>
<g>
</g>
<g>
</g>
<g>
</g>
<g>
</g>
<g>
</g>
<g>
</g>
<g>
</g>
<g>
</g>
<g>
</g>
</symbol><symbol id="support" viewBox="0 0 437.212 437.212">
<g>
	<g>
		<g>
			<path d="M404.812,41.206h-300c-18,0-32.4,14.8-32.4,32.4v186.4c0,18,14.8,32.4,32.4,32.4h206.8l46.8,47.2c2,2,4.4,3.2,7.2,3.2
				c5.6,0,10.4-4.4,10.4-10.4v-40h28.8c18,0,32.4-14.8,32.4-32.4v-186.4C437.212,55.606,422.412,41.206,404.812,41.206z
				 M150.812,201.606c-16.4,0-30-13.6-30-30c0-16.4,13.6-30,30-30c16.4,0,30,13.6,30,30
				C180.812,188.006,167.612,201.606,150.812,201.606z M256.012,201.606c-16.4,0-30-13.6-30-30c0-16.4,13.6-30,30-30
				c16.4,0,30,13.6,30,30C286.012,188.006,272.412,201.606,256.012,201.606z M360.812,201.606c-16.4,0-30-13.6-30-30
				c0-16.4,13.6-30,30-30c16.4,0,30,13.6,30,30C390.812,188.006,377.212,201.606,360.812,201.606z"/>
			<path d="M54.012,260.806v-63.6h-32.8c-11.6,0-21.2,9.6-21.2,21.2v122.4c-0.4,12.4,9.2,22,21.2,22h18.8v26.4
				c0,3.6,3.2,6.8,6.8,6.8c2,0,3.6-0.8,4.8-2l30.8-30.8h136c11.6,0,21.2-9.6,21.2-21.2v-30.4h-134.8
				C76.812,311.606,54.012,288.806,54.012,260.806z"/>
		</g>
	</g>
</g>
<g>
</g>
<g>
</g>
<g>
</g>
<g>
</g>
<g>
</g>
<g>
</g>
<g>
</g>
<g>
</g>
<g>
</g>
<g>
</g>
<g>
</g>
<g>
</g>
<g>
</g>
<g>
</g>
<g>
</g>
</symbol><symbol id="takeoff-the-plane" viewBox="0 0 371.656 371.656">
<g>
	<g>
		<g>
			<path d="M37.833,212.348c-0.01,0.006-0.021,0.01-0.032,0.017c-4.027,2.093-5.776,6.929-4.015,11.114
				c1.766,4.199,6.465,6.33,10.787,4.892l121.85-40.541l-22.784,37.207c-1.655,2.703-1.305,6.178,0.856,8.497
				c2.161,2.318,5.603,2.912,8.417,1.449l23.894-12.416c0.686-0.356,1.309-0.823,1.844-1.383l70.785-73.941l87.358-45.582
				c33.085-17.835,29.252-31.545,27.29-35.321c-1.521-2.928-4.922-6.854-12.479-8.93c-7.665-2.106-18.021-1.938-31.653,0.514
				c-4.551,0.818-7.063,0.749-9.723,0.676c-9.351-0.256-15.694,0.371-47.188,16.736L90.788,164.851l-66.8-34.668
				c-2.519-1.307-5.516-1.306-8.035,0.004l-11.256,5.85c-2.317,1.204-3.972,3.383-4.51,5.938c-0.538,2.556,0.098,5.218,1.732,7.253
				l46.364,57.749L37.833,212.348z"/>
			<path d="M355.052,282.501H28.948c-9.17,0-16.604,7.436-16.604,16.604s7.434,16.604,16.604,16.604h326.104
				c9.17,0,16.604-7.434,16.604-16.604C371.655,289.934,364.222,282.501,355.052,282.501z"/>
		</g>
	</g>
</g>
<g>
</g>
<g>
</g>
<g>
</g>
<g>
</g>
<g>
</g>
<g>
</g>
<g>
</g>
<g>
</g>
<g>
</g>
<g>
</g>
<g>
</g>
<g>
</g>
<g>
</g>
<g>
</g>
<g>
</g>
</symbol></svg>
